<svg xmlns="http://www.w3.org/2000/svg" width="29" height="25" viewBox="0 0 29 25"><path fill="#fff" d="M9.242 24.563c11.055 0 17.07-9.105 17.07-17.071v-.813c1.139-.813 2.114-1.951 2.927-3.09a13.497 13.497 0 0 1-3.414.976c1.3-.813 2.113-1.95 2.601-3.252-1.138.65-2.438 1.139-3.74 1.464C23.55 1.476 21.924.826 20.298.826c-3.251 0-6.015 2.764-6.015 6.015 0 .488 0 .976.162 1.3-5.04-.324-9.43-2.6-12.356-6.34-.488.813-.813 1.951-.813 3.09 0 2.113 1.138 3.901 2.601 5.04-.975 0-1.95-.326-2.763-.814 0 2.927 2.113 5.365 4.877 5.853-.488.163-.975.163-1.626.163-.325 0-.813 0-1.138-.163.813 2.439 2.927 4.065 5.69 4.227C6.803 20.823 4.202 21.8 1.438 21.8c-.488 0-.976 0-1.464-.163 2.602 1.951 5.853 2.927 9.268 2.927"/></svg>